<svg width="32" height="39" viewBox="0 0 32 39" fill="none" xmlns="http://www.w3.org/2000/svg">
<path d="M14.8898 38.1136C15.2142 38.3452 15.6029 38.4697 16.0015 38.4697C16.4001 38.4697 16.7887 38.3452 17.1131 38.1136C17.6958 37.7015 31.3904 27.8134 31.3348 15.4701C31.3348 7.01564 24.4559 0.136719 16.0015 0.136719C7.54705 0.136719 0.668137 7.01564 0.668137 15.4605C0.612554 27.8134 14.3071 37.7015 14.8898 38.1136ZM16.0015 3.97005C22.3437 3.97005 27.5015 9.1278 27.5015 15.4796C27.5417 23.9858 19.0911 31.6237 16.0015 34.1288C12.9137 31.6218 4.46122 23.982 4.50147 15.4701C4.50147 9.1278 9.65922 3.97005 16.0015 3.97005Z" fill="white"/>
</svg>
