<svg width="33" height="33" viewBox="0 0 33 33" fill="none" xmlns="http://www.w3.org/2000/svg">
<path d="M31.197 0.786133H1.73786C1.0294 0.786133 0.457031 1.3585 0.457031 2.06696V31.5261C0.457031 32.2345 1.0294 32.8069 1.73786 32.8069H31.197C31.9054 32.8069 32.4778 32.2345 32.4778 31.5261V2.06696C32.4778 1.3585 31.9054 0.786133 31.197 0.786133ZM9.95519 28.0718H5.20411V12.7899H9.95519V28.0718ZM7.58165 10.7006C7.03701 10.7006 6.50459 10.5391 6.05173 10.2365C5.59887 9.93388 5.24591 9.5038 5.03749 9.00061C4.82906 8.49742 4.77453 7.94372 4.88078 7.40954C4.98704 6.87536 5.24931 6.38468 5.63443 5.99956C6.01956 5.61443 6.51023 5.35216 7.04442 5.24591C7.5786 5.13965 8.13229 5.19418 8.63548 5.40261C9.13867 5.61104 9.56875 5.964 9.87134 6.41686C10.1739 6.86972 10.3354 7.40213 10.3354 7.94678C10.3314 9.46777 9.09864 10.7006 7.58165 10.7006ZM27.7427 28.0718H22.9957V20.639C22.9957 18.8659 22.9636 16.5884 20.5261 16.5884C18.0565 16.5884 17.6762 18.5176 17.6762 20.5109V28.0718H12.9331V12.7899H17.4881V14.8793H17.5521C18.1845 13.6785 19.7335 12.4097 22.047 12.4097C26.8582 12.4097 27.7427 15.5757 27.7427 19.6904V28.0718Z" fill="white"/>
</svg>
