<svg width="35" height="28" viewBox="0 0 35 28" fill="none" xmlns="http://www.w3.org/2000/svg">
<path d="M34.1455 3.48168C32.9207 4.01002 31.5878 4.39027 30.2149 4.53837C31.6403 3.69156 32.7077 2.35375 33.2168 0.775924C31.8793 1.5716 30.414 2.12954 28.886 2.42499C28.2474 1.74226 27.475 1.19836 26.617 0.827188C25.7589 0.456017 24.8337 0.26553 23.8988 0.267595C20.1163 0.267595 17.0744 3.33358 17.0744 7.09603C17.0744 7.62437 17.1384 8.15271 17.2425 8.66104C11.5788 8.36485 6.52753 5.65909 3.16936 1.5164C2.55746 2.56154 2.2368 3.75156 2.24075 4.96264C2.24075 7.33218 3.44553 9.42153 5.28273 10.6503C4.20004 10.6077 3.14271 10.3101 2.19672 9.78177V9.86582C2.19672 13.184 4.54225 15.9338 7.66827 16.5662C7.08133 16.7186 6.47753 16.7966 5.87111 16.7983C5.42682 16.7983 5.00655 16.7543 4.58227 16.6943C5.44683 19.4 7.96447 21.3653 10.9624 21.4293C8.61689 23.2665 5.67898 24.3472 2.48891 24.3472C1.91654 24.3472 1.3882 24.3272 0.839844 24.2632C3.86581 26.2044 7.45614 27.3252 11.3226 27.3252C23.8748 27.3252 30.7432 16.9264 30.7432 7.90055C30.7432 7.60436 30.7432 7.30816 30.7232 7.01197C32.0521 6.03934 33.2168 4.83456 34.1455 3.48168Z" fill="white"/>
</svg>
