<svg width="33" height="33" viewBox="0 0 33 33" fill="none" xmlns="http://www.w3.org/2000/svg">
<path d="M31.2126 0.786133H1.75349C1.04503 0.786133 0.472656 1.3585 0.472656 2.06696V31.5261C0.472656 32.2345 1.04503 32.8069 1.75349 32.8069H31.2126C31.9211 32.8069 32.4934 32.2345 32.4934 31.5261V2.06696C32.4934 1.3585 31.9211 0.786133 31.2126 0.786133ZM27.5142 10.1322H24.9565C22.9512 10.1322 22.563 11.0848 22.563 12.4857V15.5717H27.3501L26.7257 20.4029H22.563V32.8069H17.5718V20.4069H13.397V15.5717H17.5718V12.0094C17.5718 7.87473 20.0974 5.62127 23.7878 5.62127C25.5569 5.62127 27.0739 5.75336 27.5182 5.8134V10.1322H27.5142Z" fill="white"/>
</svg>
